<?xml version="1.0" encoding="utf-8"?>
<svg viewBox="0 0 512 512" width="24px" height="24px" fill="#9e6c2e" stroke="red" xmlns="http://www.w3.org/2000/svg">
  <path d="M 487.704 427.661 C 487.704 464.652 458.245 494.485 421.216 494.485 L 86.335 494.485 C 50.081 494.485 20.741 464.558 20.741 427.568 C 20.741 394.221 44.627 366.832 75.974 361.72 C 60.241 349.499 49.926 330.354 49.926 308.605 C 49.926 271.615 79.339 241.688 115.593 241.688 L 128.352 241.688 C 116.048 230.722 108.296 214.922 108.296 197.077 C 108.296 164.195 134.345 137.596 166.612 137.596 L 181.205 137.596 C 221.48 137.596 254.223 104.249 254.223 63.244 C 254.223 47.092 248.947 32.249 240.396 20.055 C 244.92 19.355 249.571 18.633 254.223 18.633 C 302.561 18.633 341.778 58.597 341.778 107.855 C 341.778 118.311 339.691 128.302 336.385 137.596 L 341.747 137.596 C 373.973 137.596 400.148 164.177 400.148 197.077 C 400.148 214.968 392.314 230.769 380.002 241.688 L 392.852 241.688 C 429.151 241.688 458.519 271.615 458.519 308.605 C 458.519 330.335 448.14 349.508 432.408 361.711 C 463.718 366.786 487.704 394.389 487.704 427.661 Z" stroke="#9e6c2e" stroke-width="30" style="" transform="matrix(1, 0, 0, 1, -7.105427357601002e-15, 0)"/>
</svg>